<?xml version="1.0" encoding="UTF-8" standalone="no"?>
<svg
   viewBox="0,0,256,256"
   width="52px"
   height="52px"
   fill-rule="nonzero"
   version="1.1"
   id="svg8"
   sodipodi:docname="icons8-check-active.svg"
   inkscape:version="1.2.2 (b0a8486541, 2022-12-01)"
   xmlns:inkscape="http://www.inkscape.org/namespaces/inkscape"
   xmlns:sodipodi="http://sodipodi.sourceforge.net/DTD/sodipodi-0.dtd"
   xmlns="http://www.w3.org/2000/svg"
   xmlns:svg="http://www.w3.org/2000/svg">
  <defs
     id="defs12" />
  <sodipodi:namedview
     id="namedview10"
     pagecolor="#ffffff"
     bordercolor="#000000"
     borderopacity="0.25"
     inkscape:showpageshadow="2"
     inkscape:pageopacity="0.0"
     inkscape:pagecheckerboard="0"
     inkscape:deskcolor="#d1d1d1"
     showgrid="false"
     inkscape:zoom="4.5384615"
     inkscape:cx="-11.127119"
     inkscape:cy="26"
     inkscape:window-width="1920"
     inkscape:window-height="1043"
     inkscape:window-x="0"
     inkscape:window-y="0"
     inkscape:window-maximized="1"
     inkscape:current-layer="svg8" />
  <g
     fill="#bce8b3"
     fill-rule="nonzero"
     stroke="none"
     stroke-width="1"
     stroke-linecap="butt"
     stroke-linejoin="miter"
     stroke-miterlimit="10"
     stroke-dasharray=""
     stroke-dashoffset="0"
     font-family="none"
     font-weight="none"
     font-size="none"
     text-anchor="none"
     style="mix-blend-mode:normal;fill:#84d787;fill-opacity:1"
     id="g6">
    <g
       transform="scale(9.84615,9.84615)"
       id="g4"
       style="fill:#84d787;fill-opacity:1">
      <path
         d="M13,1c-6.61719,0 -12,5.38281 -12,12c0,6.61719 5.38281,12 12,12c6.61719,0 12,-5.38281 12,-12c0,-6.61719 -5.38281,-12 -12,-12zM13,3c5.53516,0 10,4.46484 10,10c0,5.53516 -4.46484,10 -10,10c-5.53516,0 -10,-4.46484 -10,-10c0,-5.53516 4.46484,-10 10,-10zM17.1875,7.0625c-0.14844,0.02344 -0.27344,0.10156 -0.375,0.25l-4.90625,7.28125l-2.3125,-2.28125c-0.19922,-0.30078 -0.58203,-0.32422 -0.78125,-0.125l-0.90625,0.90625c-0.19922,0.30078 -0.19922,0.70703 0,0.90625l3.5,3.5c0.19922,0.10156 0.48047,0.3125 0.78125,0.3125c0.19922,0 0.51953,-0.10547 0.71875,-0.40625l6,-8.8125c0.19922,-0.30078 0.08594,-0.58203 -0.3125,-0.78125l-1,-0.71875c-0.10156,-0.05078 -0.25781,-0.05469 -0.40625,-0.03125z"
         id="path2"
         style="fill:#84d787;fill-opacity:1" />
    </g>
  </g>
</svg>
